<svg xmlns="http://www.w3.org/2000/svg" fill="currentColor" viewBox="0 0 24 24"><path fill-rule="evenodd" d="M.384 7.883a.549.549 0 0 0-.23.145.522.522 0 0 0-.126.534c.416 1.286.673 2.025.877 2.613.065.187.125.359.182.528v.001l.131.372c.152.43.31.879.548 1.6l.005.017.008.014c.157.294.388.544.67.728.279.181.6.293.933.326l17.424 4.04c.44.113.893.176 1.348.188a1.7 1.7 0 0 0 1.188-.31c.34-.247.57-.612.64-1.02a.527.527 0 0 0-.004-.287l-.003-.01c-.312-.875-.623-1.407-1.177-1.796-.538-.376-1.29-.605-2.43-.93l-.004-.001-5.49-1.456c-.283-.394-.59-.808-.91-1.237l-.043-.059a115.4 115.4 0 0 1-1.08-1.47l-.665-.908-.002-.002c-.864-1.18-1.769-2.415-2.655-3.64a1.557 1.557 0 0 0-.468-.431 1.61 1.61 0 0 0-.6-.212l-.792-.173a.9.9 0 0 0-.86.16l-.007.005-.006.007a.641.641 0 0 0-.158.634l1.617 6.034-2.951-.669-1.149-1.286-1.322-1.475-.002-.003a.594.594 0 0 0-.284-.169l-.008-.002-1.862-.416-.006-.001a.561.561 0 0 0-.277.017Zm2.926 2.772 1.217 1.366c.1.12.239.201.392.233l3.685.867.005.001a.766.766 0 0 0 .69-.2.72.72 0 0 0 .192-.679v-.002L7.895 6.216l.33.088.01.003c.146.031.219.053.268.08a.34.34 0 0 1 .125.119c.57.772 1.136 1.55 1.693 2.315l.033.046c.545.75 1.082 1.488 1.605 2.197.76 1.03 1.475 2.003 2.102 2.87l.006.008c.048.06.107.11.173.149l.065.044a.605.605 0 0 0 .16.082l.012.003 5.606 1.481c1.066.325 1.642.505 2.018.755.343.228.527.52.75 1.119a.446.446 0 0 1-.07.14.4.4 0 0 1-.204.132c-.231.075-.671.087-1.512-.102l-17.46-4.057-.01-.002c-.32-.056-.512-.142-.628-.219a.544.544 0 0 1-.175-.175c-.277-.856-.436-1.306-.634-1.867l-.067-.187c-.182-.518-.388-1.1-.721-2.097l.734.151 1.206 1.363Z" clip-rule="evenodd"></path></svg>